HIERARCHY
ROOT Hips
{
  OFFSET -32.5998 29.0326 120.673
  CHANNELS 6 Xposition Yposition Zposition Zrotation Xrotation Yrotation
  JOINT LeftUpLeg
  {
    OFFSET 8.64259 1.95398 -2.38835
    CHANNELS 3 Zrotation Xrotation Yrotation
    JOINT LeftLeg
    {
      OFFSET 43.7702 0 0
      CHANNELS 3 Zrotation Xrotation Yrotation
      JOINT LeftFoot
      {
        OFFSET 40.6238 0 0
        CHANNELS 3 Zrotation Xrotation Yrotation
        JOINT LeftToeBase
        {
          OFFSET 12.7242 0 0
          CHANNELS 3 Zrotation Xrotation Yrotation
          End Site
          {
            OFFSET 0 0 0
          }
        }
      }
    }
  }
  JOINT RightUpLeg
  {
    OFFSET -8.2249 1.95398 -2.59336
    CHANNELS 3 Zrotation Xrotation Yrotation
    JOINT RightLeg
    {
      OFFSET 43.5653 0 0
      CHANNELS 3 Zrotation Xrotation Yrotation
      JOINT RightFoot
      {
        OFFSET 40.6238 0 0
        CHANNELS 3 Zrotation Xrotation Yrotation
        JOINT RightToeBase
        {
          OFFSET 12.7242 0 0
          CHANNELS 3 Zrotation Xrotation Yrotation
          End Site
          {
            OFFSET 0 0 0
          }
        }
      }
    }
  }
  JOINT Spine
  {
    OFFSET 0.165834 0.87714 6.61349
    CHANNELS 3 Zrotation Xrotation Yrotation
    JOINT Spine1
    {
      OFFSET 7.38963 1.71661e-005 0
      CHANNELS 3 Zrotation Xrotation Yrotation
      JOINT Spine2
      {
        OFFSET 11.9445 1.14441e-005 0
        CHANNELS 3 Zrotation Xrotation Yrotation
        JOINT Spine3
        {
          OFFSET 14.7254 4.19617e-005 0
          CHANNELS 3 Zrotation Xrotation Yrotation
          JOINT Spine4
          {
            OFFSET 10.9679 0 0
            CHANNELS 3 Zrotation Xrotation Yrotation
            JOINT RightShoulder
            {
              OFFSET 2.46616 -1.6653 3.69651
              CHANNELS 3 Zrotation Xrotation Yrotation
              JOINT RightArm
              {
                OFFSET 13.0012 0 0
                CHANNELS 3 Zrotation Xrotation Yrotation
                JOINT RightForeArm
                {
                  OFFSET 28.7848 1.62311e-005 0
                  CHANNELS 3 Zrotation Xrotation Yrotation
                  JOINT RightHand
                  {
                    OFFSET 26.5688 1.62095e-005 0
                    CHANNELS 3 Zrotation Xrotation Yrotation
                    End Site
                    {
                      OFFSET 0 0 0
                    }
                  }
                }
              }
            }
            JOINT LeftShoulder
            {
              OFFSET 2.38034 -1.29275 -3.7523
              CHANNELS 3 Zrotation Xrotation Yrotation
              JOINT LeftArm
              {
                OFFSET 16.3182 6.07031e-005 0
                CHANNELS 3 Zrotation Xrotation Yrotation
                JOINT LeftForeArm
                {
                  OFFSET 27.0901 0 0
                  CHANNELS 3 Zrotation Xrotation Yrotation
                  JOINT LeftHand
                  {
                    OFFSET 24.5451 1.51738e-005 0
                    CHANNELS 3 Zrotation Xrotation Yrotation
                    End Site
                    {
                      OFFSET 0 0 0
                    }
                  }
                }
              }
            }
            JOINT Neck
            {
              OFFSET 5.0226 -0.0266342 0
              CHANNELS 3 Zrotation Xrotation Yrotation
              JOINT Head
              {
                OFFSET 6.69364 2.86102e-005 0
                CHANNELS 3 Zrotation Xrotation Yrotation
                End Site
                {
                  OFFSET 0 0 0
                }
              }
            }
          }
        }
      }
    }
  }
}
MOTION
Frames:	13
Frame Time:	0.0416667
29.2727 99.4822 19.5797 18.3976 -70.6682 14.7297 -178.588 29.9442 86.5821 -15.4881 13.0693 -0.258919 66.4435 2.96325 -3.29002 13.4078 -11.2095 7.47758 176.551 26.0963 89.5252 -10.7333 -11.1757 0.14162 66.1589 -3.58209 -5.88096 18.4733 3.56252 3.37306 0.408187 8.88068 -90.8658 9.11261 0.427072 -1.74489 -2.55947 0.349864 -1.76201 -25.0875 0.931677 -1.53596 -5.07486 0.931673 -1.53596 87.6583 -25.8221 -113.358 18.3867 -12.7173 -33.489 -17.1007 -17.0653 -28.0652 -9.07817 -0.133491 -3.65694 -92.3838 -42.4594 73.1107 5.86182 33.5628 -70.1066 1.67759 -0.288615 -10.4656 -1.11098 -0.108965 -6.04671 14.4468 23.9388 10.375 -9.94954 20.0576 12.5035 
29.5514 99.527 19.6467 21.1579 -70.9069 17.6111 -178.803 29.2018 86.3179 -15.085 13.8579 0.0852501 66.1577 2.51331 -3.32537 13.428 -11.4002 7.79922 176.302 25.5816 89.3487 -11.0085 -10.3104 0.243399 66.3426 -3.59095 -5.48384 18.7592 3.50248 3.18817 0.396522 8.9724 -90.9607 8.92833 0.362947 -1.92643 -2.744 0.277823 -1.94053 -25.2699 0.925054 -1.72839 -5.25726 0.925054 -1.72839 87.5635 -25.4534 -113.744 19.3489 -11.3803 -31.2504 -17.0881 -17.2846 -27.8529 -10.8582 -0.313002 -1.87589 -92.157 -41.7439 73.2658 5.27247 33.5345 -67.4035 0.975484 -0.380585 -7.80123 -0.890802 -0.11418 -6.21664 12.0409 22.7922 7.33596 -10.1808 19.8803 12.476 
29.7455 99.5655 19.8427 25.4979 -71.1247 22.0268 -178.945 28.3495 86.0476 -14.9616 14.9352 0.295043 66.0995 2.45319 -3.34077 13.2254 -11.3147 7.48209 176.086 24.7028 89.1751 -11.2305 -9.2879 0.240513 66.5747 -3.63236 -5.48467 19.0135 3.47623 2.94608 0.370907 8.93982 -91.0551 8.99203 0.269183 -2.10758 -2.68061 0.176186 -2.11739 -25.204 0.890035 -1.92937 -5.19141 0.890044 -1.92937 87.5398 -25.5455 -113.746 18.7044 -13.4692 -28.7768 -14.2662 -15.3511 -24.3898 -11.4947 -0.139569 -3.92251 -92.3401 -42.8744 73.3034 5.283 33.5007 -64.5728 0.0408128 -0.287596 -4.46092 -1.17472 -0.0999172 -5.44943 9.56115 20.9834 4.36414 -9.68268 19.0288 11.7499 
29.8532 99.6688 20.1637 28.8498 -71.9074 25.6913 -178.785 27.1619 86.2091 -15.3318 16.1026 0.295218 66.3134 2.69513 -2.97836 13.0518 -11.6282 7.82226 176.005 23.0387 89.4332 -11.0059 -8.63653 0.164264 66.4621 -3.51265 -5.06312 19.5206 3.62142 1.87311 0.393525 8.93423 -91.1327 9.00262 0.279596 -2.26216 -2.67028 0.179797 -2.27227 -25.1919 0.946397 -2.07369 -5.17921 0.946402 -2.0737 87.6157 -26.1292 -113.291 19.0211 -14.4615 -26.7163 -13.2351 -16.8814 -22.112 -12.9574 -0.224459 -3.26903 -92.1561 -43.2771 73.7154 3.94791 33.0422 -61.4321 0.225996 0.724524 -3.13522 -1.77942 -0.0920988 -4.56136 8.24046 19.6084 2.13988 -9.19714 18.2458 11.7849 
30.0054 99.7812 20.541 34.4782 -72.2264 31.6535 -178.716 25.9905 86.3305 -15.6859 17.3376 0.297274 66.5751 3.10272 -3.15919 12.8441 -11.3649 7.22217 175.814 21.2322 89.5723 -10.5923 -7.30556 0.172918 66.4993 -3.5572 -4.91164 19.8252 3.67917 1.30808 0.378089 8.89137 -91.2623 9.08645 0.19008 -2.51313 -2.58692 0.079334 -2.51906 -25.1047 0.936379 -2.33999 -5.09206 0.936388 -2.34001 88.0987 -26.4628 -112.131 19.8557 -15.4742 -25.0444 -12.7066 -16.7539 -21.4795 -11.8965 -0.145279 -3.8971 -92.1301 -43.7438 73.89 3.71757 32.9477 -59.8653 1.03722 0.561504 -4.66108 -0.347467 -0.100247 -4.94102 7.05555 18.588 1.35323 -8.90218 17.5145 10.7691 
30.0747 99.8711 20.9996 43.3587 -72.4822 40.7749 -178.258 24.317 86.5153 -16.3882 20.0406 -0.153819 66.9337 3.73684 -2.78409 12.6147 -11.6037 7.39421 175.416 18.6347 89.6405 -10.1921 -5.48356 0.278634 66.7811 -3.72541 -4.65174 20.0412 3.73684 0.851448 0.367144 8.8721 -91.371 9.12289 0.119214 -2.72367 -2.5509 -0.000730668 -2.72629 -25.0652 0.932012 -2.56214 -5.05253 0.932012 -2.56214 87.292 -26.8056 -113.614 20.8825 -14.9527 -21.2657 -13.7892 -17.3593 -22.8273 -10.456 -0.133588 -3.87414 -92.0902 -43.4336 73.8655 3.06548 33.4081 -60.2701 1.40442 0.721436 -5.93937 -0.544811 -0.100686 -5.061 6.40396 17.397 -0.0449199 -8.41118 16.7523 8.75787 
30.2385 99.7918 21.4876 51.6921 -72.4625 49.2016 -178.083 23.0982 86.5609 -18.1082 22.0005 -0.218672 67.8132 4.49609 -2.51674 12.8866 -11.5185 7.50145 174.75 16.8661 89.5494 -11.3973 -4.19707 0.634473 67.9636 -4.27626 -4.87157 19.9338 3.67965 1.162 0.333039 8.79838 -91.4293 9.26884 0.0231895 -2.83342 -2.40518 -0.101476 -2.8317 -24.9173 0.873371 -2.69565 -4.90464 0.873372 -2.69567 87.0492 -27.5303 -113.742 20.9948 -15.5535 -20.3429 -13.0132 -16.7833 -22.0808 -11.2363 -0.178269 -3.47146 -91.9991 -43.5836 74.0539 2.52715 34.6096 -60.7218 2.11044 -0.151249 -9.01745 0.438226 -0.0892756 -4.31242 6.38919 15.3765 -2.64768 -8.55186 15.2569 8.54605 
30.3326 99.7123 22.0716 58.9473 -72.5191 56.827 -177.827 21.9432 87.0142 -20.1787 23.3944 -0.137419 69.0415 5.32895 -2.45544 12.7656 -11.388 7.18901 174.473 14.6658 89.887 -11.9091 -2.82691 0.771895 68.7423 -4.61869 -4.77625 20.3066 3.51226 1.15231 0.329094 8.69788 -91.5115 9.46802 -0.024119 -2.9942 -2.20639 -0.155797 -2.99024 -24.7156 0.876497 -2.86324 -4.70291 0.876502 -2.86324 86.8435 -27.6754 -114.08 21.479 -15.8474 -19.9285 -13.3054 -17.4114 -22.2556 -10.3604 -0.110426 -4.10947 -92.258 -44.4441 73.8849 1.46729 36.129 -61.3873 2.81778 1.02843 -11.0291 -0.0187647 -0.0871816 -4.11388 6.05516 13.7917 -4.14968 -8.57949 14.0026 8.0129 
30.5039 99.6137 22.6864 65.2102 -72.3315 63.6145 -177.583 20.9685 87.619 -22.2563 24.7748 -0.00324474 70.1982 6.05967 -2.53099 12.9497 -11.3815 7.34197 174.401 12.6877 90.4174 -12.3237 -1.76115 0.806149 69.3383 -4.92195 -5.04151 20.4312 3.42856 1.23133 0.302899 8.57941 -91.5673 9.70321 -0.104822 -3.10031 -1.9714 -0.24111 -3.09271 -24.4784 0.831365 -2.9887 -4.46571 0.831366 -2.9887 86.3131 -29.5288 -114.21 20.1471 -16.3904 -20.262 -12.9597 -14.948 -23.0527 -9.37058 0.00403382 -5.5026 -92.1513 -44.3797 74.0356 -2.58058 37.5232 -59.8453 3.75836 1.53624 -12.3685 -1.46385 -0.087917 -4.03721 6.06994 12.3191 -6.71795 -8.80772 12.9982 8.62309 
30.7223 99.5602 23.2896 70.0796 -72.6732 68.8316 -177.178 19.749 88.1398 -23.6426 25.5279 -0.0244951 71.1168 6.76537 -2.11558 12.9832 -11.2473 7.15977 174.283 10.8873 90.7914 -12.7968 -1.2509 0.835446 69.8299 -5.00838 -4.52853 21.0442 3.4374 0.363414 0.298026 8.49547 -91.6555 9.86955 -0.156894 -3.27112 -1.80547 -0.300639 -3.26107 -24.3091 0.832945 -3.16729 -4.29644 0.832967 -3.16728 86.0011 -29.8174 -114.673 19.5809 -16.42 -20.1706 -14.6233 -16.3334 -25.7918 -10.8846 -0.252586 -2.59293 -91.892 -45.2328 74.6769 -8.56121 36.7201 -55.7135 4.76966 2.30532 -11.6137 -2.66855 -0.0930083 -3.64989 5.8858 10.8808 -7.48288 -8.84225 11.767 7.59164 
30.8715 99.4686 23.8725 72.3658 -72.6282 71.4809 -176.848 19.2624 88.6582 -24.7596 26.1793 -0.0815967 72.1466 7.41364 -2.1597 12.7092 -11.3746 7.11837 174.373 9.65504 91.1721 -12.7295 -0.707368 0.827797 70.3094 -5.32843 -4.76948 20.9213 3.34721 0.803593 0.310604 8.30827 -91.8235 10.2394 -0.213904 -3.60352 -1.43652 -0.372186 -3.59066 -23.9331 0.878308 -3.50151 -3.92047 0.878307 -3.50152 85.5386 -30.2867 -115.332 18.0273 -16.6967 -18.8004 -15.8826 -16.3642 -28.3601 -10.9857 -0.240657 -2.91001 -91.7347 -46.0918 75.1537 -9.38587 36.6412 -54.1157 4.16422 2.26721 -9.22247 -1.33466 -0.103445 -3.40876 4.79668 9.72041 -8.15973 -8.36707 10.7566 6.79506 
31.2267 99.4633 24.4608 76.4709 -72.3301 75.5264 -176.734 18.0135 88.6744 -25.3471 26.7654 -0.0249496 72.7674 7.78747 -2.28319 12.2745 -11.5112 6.95077 173.921 8.23531 90.9535 -13.0806 -0.491478 1.03702 70.6843 -5.43301 -4.50253 21.3469 3.32077 0.286301 0.277529 8.23893 -91.9724 10.3739 -0.350196 -3.88793 -1.30271 -0.52084 -3.8688 -23.7925 0.833599 -3.81373 -3.77988 0.833594 -3.81374 85.5922 -30.8015 -114.975 17.0523 -16.344 -17.6545 -15.9975 -16.7045 -28.3006 -9.66381 -0.135063 -3.71612 -91.2511 -45.498 75.7528 -8.0688 36.9948 -53.6641 3.06526 1.01543 -7.34966 0.256737 -0.108831 -5.29226 4.31804 8.39337 -10.5707 -8.11748 9.84341 7.21532 
31.5138 99.4092 24.9939 78.7076 -71.7281 77.7318 -176.623 17.3312 88.6925 -25.8115 27.6612 -0.0636327 73.291 8.20439 -2.02366 12.4798 -11.463 7.05506 173.857 7.40184 90.8854 -13.2873 0.44027 0.930291 71.284 -5.70443 -4.46345 21.0356 3.34689 0.646769 0.147955 8.08675 -92.0614 10.6709 -0.654304 -4.03853 -1.00602 -0.831269 -4.0059 -23.4913 0.588627 -4.04862 -3.47864 0.588639 -4.0486 84.1971 -31.7841 -117.109 16.3574 -14.7492 -13.915 -15.6249 -16.6215 -27.3619 -11.3541 -0.209751 -3.15052 -90.8299 -44.9677 76.2797 -8.04471 37.7 -50.5874 3.52321 2.96389 -7.935 -1.25707 -0.0901833 -4.33341 3.93765 7.53987 -13.4789 -8.0664 9.49156 6.9768 
